<mxfile host="app.diagrams.net" modified="2024-03-21T19:29:08.397Z" agent="Mozilla/5.0 (Windows NT 10.0; Win64; x64) AppleWebKit/537.36 (KHTML, like Gecko) Chrome/122.0.0.0 Safari/537.36" etag="GpO91ad1QlwYKXHnkDwX" version="24.0.7" type="google">
  <diagram name="Page-1" id="HeGrC5uG9cpxvwF2XkxD">
    <mxGraphModel grid="1" page="1" gridSize="10" guides="1" tooltips="1" connect="1" arrows="1" fold="1" pageScale="1" pageWidth="850" pageHeight="1100" math="0" shadow="0">
      <root>
        <mxCell id="0" />
        <mxCell id="1" parent="0" />
        <mxCell id="PULV0fEfbyqmZ-hmgNmc-2" value="" style="rounded=1;whiteSpace=wrap;html=1;" vertex="1" parent="1">
          <mxGeometry x="140" y="230" width="120" height="60" as="geometry" />
        </mxCell>
        <mxCell id="PULV0fEfbyqmZ-hmgNmc-3" value="FNN" style="rounded=1;whiteSpace=wrap;html=1;fillColor=#dae8fc;strokeColor=#6c8ebf;" vertex="1" parent="1">
          <mxGeometry x="140" y="230" width="120" height="60" as="geometry" />
        </mxCell>
        <mxCell id="PULV0fEfbyqmZ-hmgNmc-28" style="edgeStyle=orthogonalEdgeStyle;curved=1;rounded=0;orthogonalLoop=1;jettySize=auto;html=1;exitX=0.5;exitY=0;exitDx=0;exitDy=0;entryX=0.5;entryY=1;entryDx=0;entryDy=0;" edge="1" parent="1" source="PULV0fEfbyqmZ-hmgNmc-4" target="PULV0fEfbyqmZ-hmgNmc-19">
          <mxGeometry relative="1" as="geometry" />
        </mxCell>
        <mxCell id="PULV0fEfbyqmZ-hmgNmc-4" value="Add &amp;amp; Norm" style="rounded=1;whiteSpace=wrap;html=1;fillColor=#d5e8d4;strokeColor=#82b366;" vertex="1" parent="1">
          <mxGeometry x="140" y="190" width="120" height="40" as="geometry" />
        </mxCell>
        <mxCell id="PULV0fEfbyqmZ-hmgNmc-5" value="Multi-Head&lt;div&gt;Attention&lt;/div&gt;" style="rounded=1;whiteSpace=wrap;html=1;fillColor=#ffe6cc;strokeColor=#d79b00;" vertex="1" parent="1">
          <mxGeometry x="140" y="400" width="120" height="60" as="geometry" />
        </mxCell>
        <mxCell id="PULV0fEfbyqmZ-hmgNmc-6" value="Add &amp;amp; Norm" style="rounded=1;whiteSpace=wrap;html=1;fillColor=#d5e8d4;strokeColor=#82b366;" vertex="1" parent="1">
          <mxGeometry x="140" y="360" width="120" height="40" as="geometry" />
        </mxCell>
        <mxCell id="PULV0fEfbyqmZ-hmgNmc-7" value="" style="endArrow=classic;html=1;rounded=0;exitX=0.496;exitY=-0.162;exitDx=0;exitDy=0;exitPerimeter=0;entryX=0.5;entryY=1;entryDx=0;entryDy=0;" edge="1" parent="1" target="PULV0fEfbyqmZ-hmgNmc-3">
          <mxGeometry width="50" height="50" relative="1" as="geometry">
            <mxPoint x="199.76" y="360" as="sourcePoint" />
            <mxPoint x="200.24" y="296.48" as="targetPoint" />
          </mxGeometry>
        </mxCell>
        <mxCell id="PULV0fEfbyqmZ-hmgNmc-11" value="" style="html=1;shadow=0;dashed=0;align=center;verticalAlign=middle;shape=mxgraph.arrows2.uTurnArrow;dy=0;arrowHead=7.5;dx2=10.13;fillColor=#330000;" vertex="1" parent="1">
          <mxGeometry x="70" y="210" width="130" height="120" as="geometry" />
        </mxCell>
        <mxCell id="PULV0fEfbyqmZ-hmgNmc-15" value="" style="html=1;shadow=0;dashed=0;align=center;verticalAlign=middle;shape=mxgraph.arrows2.uTurnArrow;dy=0;arrowHead=7.5;dx2=10.13;fillColor=#330000;" vertex="1" parent="1">
          <mxGeometry x="70" y="370" width="130" height="120" as="geometry" />
        </mxCell>
        <mxCell id="PULV0fEfbyqmZ-hmgNmc-17" value="" style="endArrow=classic;html=1;rounded=0;exitX=0.496;exitY=-0.162;exitDx=0;exitDy=0;exitPerimeter=0;entryX=0.5;entryY=1;entryDx=0;entryDy=0;" edge="1" parent="1">
          <mxGeometry width="50" height="50" relative="1" as="geometry">
            <mxPoint x="200" y="530" as="sourcePoint" />
            <mxPoint x="200.24" y="460" as="targetPoint" />
          </mxGeometry>
        </mxCell>
        <mxCell id="PULV0fEfbyqmZ-hmgNmc-19" value="Output" style="rounded=1;whiteSpace=wrap;html=1;" vertex="1" parent="1">
          <mxGeometry x="140" y="120" width="120" height="40" as="geometry" />
        </mxCell>
        <mxCell id="PULV0fEfbyqmZ-hmgNmc-25" value="" style="endArrow=classic;html=1;rounded=0;edgeStyle=orthogonalEdgeStyle;entryX=0.75;entryY=1;entryDx=0;entryDy=0;" edge="1" parent="1" target="PULV0fEfbyqmZ-hmgNmc-5">
          <mxGeometry width="50" height="50" relative="1" as="geometry">
            <mxPoint x="200" y="490" as="sourcePoint" />
            <mxPoint x="260" y="490" as="targetPoint" />
            <Array as="points">
              <mxPoint x="200" y="480" />
              <mxPoint x="230" y="480" />
            </Array>
          </mxGeometry>
        </mxCell>
        <mxCell id="PULV0fEfbyqmZ-hmgNmc-26" value="" style="endArrow=classic;html=1;rounded=0;edgeStyle=orthogonalEdgeStyle;" edge="1" parent="1">
          <mxGeometry width="50" height="50" relative="1" as="geometry">
            <mxPoint x="130" y="490" as="sourcePoint" />
            <mxPoint x="170" y="460" as="targetPoint" />
            <Array as="points">
              <mxPoint x="200" y="490" />
              <mxPoint x="200" y="480" />
              <mxPoint x="170" y="480" />
              <mxPoint x="170" y="460" />
            </Array>
          </mxGeometry>
        </mxCell>
        <mxCell id="PULV0fEfbyqmZ-hmgNmc-27" value="Latent Feature" style="rounded=1;whiteSpace=wrap;html=1;" vertex="1" parent="1">
          <mxGeometry x="140" y="520" width="120" height="40" as="geometry" />
        </mxCell>
      </root>
    </mxGraphModel>
  </diagram>
</mxfile>
